<svg width="40" height="40" viewBox="0 0 40 40" fill="none" xmlns="http://www.w3.org/2000/svg">
<path d="M39.2411 18.2169L21.7765 0.753534C21.3097 0.288077 20.6655 0 19.9533 0C19.2411 0 18.597 0.288077 18.1302 0.753534L14.5119 4.3785L19.1118 8.97839C19.4052 8.8757 19.7426 8.81702 20.0947 8.81702C21.7871 8.81702 23.1582 10.1881 23.1582 11.8805C23.1582 12.2393 23.0968 12.582 22.9835 12.9021L22.9901 12.8808L27.4206 17.314C27.7167 17.2086 28.0595 17.1472 28.4156 17.1472C30.1067 17.1472 31.4777 18.5183 31.4777 20.2094C31.4777 21.9005 30.1067 23.2715 28.4156 23.2715C26.7245 23.2715 25.3534 21.9005 25.3534 20.2094C25.3534 19.7919 25.4375 19.3945 25.5882 19.0317L25.5802 19.0517L21.4324 14.9253V25.8002C22.4513 26.3137 23.1382 27.3513 23.1382 28.5489C23.1382 30.2427 21.7645 31.6164 20.0707 31.6164C18.3769 31.6164 17.0032 30.2427 17.0032 28.5489C17.0032 27.7034 17.3446 26.9392 17.8981 26.3844C18.1795 26.103 18.5143 25.8749 18.8864 25.7149L18.9064 25.7069V14.7253C17.7834 14.2531 17.0099 13.1608 17.0099 11.8898C17.0099 11.4631 17.0966 11.0576 17.2539 10.6882L17.2459 10.7082L12.7261 6.16698L0.749533 18.1355C0.28541 18.6036 0 19.2478 0 19.96C0 20.6722 0.286743 21.3164 0.750867 21.7845L18.2169 39.2451C18.6823 39.7119 19.3265 40 20.0387 40C20.7509 40 21.3937 39.7119 21.8605 39.2451L39.2438 21.8618C39.7106 21.3964 40 20.7509 40 20.04C40 19.3292 39.7106 18.6836 39.2438 18.2182L39.2411 18.2169Z" fill="#FCF9F9"/>
</svg>
