<svg width="40" height="46" viewBox="0 0 40 46" fill="none" xmlns="http://www.w3.org/2000/svg">
<path d="M13.4209 18.7122C12.9198 17.771 12.6951 16.6731 13.078 15.6758C13.4608 14.6561 14.3182 13.8382 15.1757 13.0762C17.5628 11.048 20.5046 9.55781 22.8394 7.49627C24.1319 6.36446 25.2003 5.00868 25.5695 3.45107C25.873 2.30828 25.728 1.13181 25.4511 0C26.691 1.19897 27.1 2.9133 26.7437 4.45965C26.3613 6.1963 25.2266 7.73131 23.8944 9.05343C22.8261 10.1181 21.5991 11.0592 20.3198 11.9334C18.8293 12.9531 17.3652 14.051 16.4288 15.4853C15.637 16.6504 15.4523 18.0847 15.9933 19.3509C16.8772 21.5245 18.9347 23.1381 20.0561 25.1885C18.8159 24.2584 17.6026 23.2948 16.4678 22.2754C15.2811 21.1996 14.1597 20.0569 13.4209 18.7122ZM20.1482 17.009C19.9241 18.7906 21.0186 20.4713 22.3249 21.7936C22.9577 22.3874 23.4986 23.1157 23.5248 23.945C23.5514 25.0538 22.8131 26.0851 21.8627 26.8131C22.0873 26.7909 22.2455 26.6227 22.4302 26.5331C23.8548 25.7599 25.2263 24.7851 25.9255 23.452C26.3872 22.5444 26.2817 21.4685 25.6751 20.628C24.9626 19.642 24.0263 18.768 23.4724 17.6925C23.1685 17.0875 23.0631 16.3816 23.3138 15.7429C23.6438 14.8803 24.356 14.1743 25.108 13.558C27.1787 11.8887 29.6849 10.7005 32.0858 9.40099C29.0518 10.1404 26.0576 11.1602 23.4986 12.7626C21.876 13.7934 20.3726 15.2275 20.1482 17.009ZM34.566 25.4352C36.0039 25.5025 37.4148 26.3987 37.6789 27.6314C37.9297 28.6958 37.3231 29.749 36.5445 30.5556C35.2648 31.8553 33.5367 32.7855 31.7961 33.5811C31.6242 33.6703 31.4792 33.7825 31.3472 33.9059C33.6426 33.4128 35.9375 32.6736 37.7976 31.4073C38.8261 30.679 39.7363 29.715 39.9344 28.561C40.1191 27.5639 39.6313 26.533 38.7605 25.872C37.705 25.0537 36.2149 24.7515 34.8163 24.9084C34.0117 24.998 33.1281 25.1437 32.5741 25.7151C33.2339 25.6034 33.8797 25.3791 34.566 25.4352ZM5.92872 28.6394C7.65643 29.0316 9.43734 29.1438 11.2049 29.2447C12.7877 29.3342 14.3709 29.3568 15.9671 29.3455C20.0824 29.2898 24.2242 29.0542 28.2605 28.2924C28.6429 28.214 29.0652 28.158 29.4085 27.9563C30.0812 27.5863 30.8194 27.295 31.5452 27.0036C28.2605 27.4519 24.9628 27.8332 21.6389 28.0123C18.2752 28.1915 14.885 28.3036 11.5084 28.1132C10.5455 28.0349 9.55603 27.9898 8.65916 27.6759C8.44785 27.5976 8.15758 27.4411 8.26303 27.2054C8.4611 26.9028 8.85681 26.7574 9.19974 26.6005C10.651 26.0178 12.2337 25.693 13.7771 25.312C11.1255 25.2782 8.48727 25.8495 6.06066 26.7348C5.51965 26.9591 4.91295 27.1382 4.47781 27.5193C4.30592 27.6758 4.30592 27.9452 4.50399 28.0794C4.89981 28.3819 5.42714 28.5163 5.92872 28.6394ZM27.2979 31.721C24.9894 32.0684 22.6675 32.3936 20.3326 32.4942C17.7736 32.6398 15.2147 32.5164 12.6822 32.2925C12.1943 32.2364 11.7061 32.1693 11.2709 31.9789C11.0467 31.8668 10.8225 31.6876 10.8358 31.452C10.862 31.0823 11.2311 30.8248 11.4952 30.5557C10.6776 30.8023 9.85954 31.0597 9.17367 31.5196C8.88309 31.7101 8.59314 32.0124 8.67209 32.3485C8.79131 32.7407 9.2397 32.976 9.63541 33.1551C10.6112 33.5812 11.7062 33.7714 12.7749 33.9395C15.4784 34.3095 18.2355 34.3208 20.9527 34.1635C23.829 33.9731 26.691 33.5699 29.4742 32.8751C28.6828 32.5728 27.9308 32.225 27.2979 31.721ZM12.801 35.5982C12.0623 35.7774 11.3103 35.9905 10.7037 36.4045C10.3998 36.6063 10.1627 36.954 10.308 37.2789C10.4927 37.6934 10.9545 37.9403 11.3893 38.1525C12.5241 38.6795 13.8034 38.9257 15.0565 39.1165C17.8929 39.4972 20.8077 39.4413 23.6307 39.0157C25.3057 38.7466 26.9811 38.3656 28.5374 37.772C27.5218 37.4134 26.5327 37.0098 25.5831 36.5394C23.9342 36.7859 22.2718 37.0438 20.5834 37.1333C18.3545 37.279 16.0986 37.1221 13.8693 36.8869C13.3416 36.786 12.6822 36.7412 12.326 36.3489C12.1417 36.0237 12.5636 35.7884 12.801 35.5982ZM30.8461 42.8026C32.6926 42.4782 34.5528 42.1077 36.2411 41.3797C36.7684 41.1217 37.4148 40.8415 37.5867 40.304C37.6789 39.7886 37.0457 39.5196 36.5973 39.3066C36.8742 39.576 37.0589 39.968 36.7816 40.2815C36.3199 40.8084 35.5289 41.0098 34.8296 41.2116C32.6401 41.7382 30.371 41.9512 28.1155 42.1642C22.1401 42.6234 16.1249 42.7356 10.1498 42.3098C8.14476 42.1303 6.09976 41.9399 4.18723 41.335C3.88414 41.2228 3.42241 41.1107 3.42241 40.7632C3.54078 40.4613 3.88414 40.2927 4.18723 40.147C5.55908 39.5533 7.08925 39.2282 8.61932 39.1499C8.17126 38.9256 7.6435 38.9034 7.1291 38.9146C5.84934 38.9482 4.59629 39.2282 3.38299 39.576C2.34083 39.9005 1.27239 40.2593 0.441121 40.9093C0.111432 41.1555 -0.191657 41.626 0.150854 41.9624C0.67861 42.4443 1.49663 42.5674 2.22161 42.713C6.28448 43.3071 10.3998 43.6427 14.5159 43.7662C19.9769 43.901 25.4773 43.6992 30.8461 42.8026ZM36.2543 43.4079C33.7743 44.0801 31.2023 44.4498 28.643 44.7524C24.2242 45.2229 19.7656 45.3686 15.3202 45.2568C12.6163 45.1672 9.91232 45.0103 7.24747 44.629C7.86742 44.9876 8.63267 45.0995 9.34514 45.2678C12.3397 45.8057 15.4127 45.9065 18.4601 45.9849C22.9311 46.0522 27.403 45.9065 31.8089 45.3126C33.8933 44.9993 35.9905 44.6181 37.8632 43.7888C38.8398 43.3519 39.8293 42.6793 40 41.7047C39.011 42.6009 37.5867 43.0157 36.2543 43.4079Z" fill="#FCF9F9"/>
</svg>
