<svg width="40" height="46" viewBox="0 0 40 46" fill="none" xmlns="http://www.w3.org/2000/svg">
<path fill-rule="evenodd" clip-rule="evenodd" d="M25.488 42.4534C24.524 42.4534 23.744 41.5519 23.744 40.4375C23.744 39.3232 24.524 38.4239 25.488 38.4239C26.452 38.4239 27.232 39.3232 27.232 40.4375C27.232 41.5519 26.452 42.4534 25.488 42.4534ZM20.144 46C30.3 46 29.666 40.9092 29.666 40.9092L29.654 35.6354H19.964V34.0519H33.502C33.502 34.0519 40 34.9051 40 23.0606C40 11.2162 34.33 11.6336 34.33 11.6336H30.944V17.1321C30.944 17.1321 31.126 23.6862 25.364 23.6862H15.752C15.752 23.6862 10.352 23.5876 10.352 29.7214V39.8614C10.352 39.8614 9.53198 46 20.144 46ZM14.514 3.54658C15.478 3.54658 16.256 4.44806 16.256 5.56245C16.256 6.67685 15.478 7.57607 14.514 7.57607C13.55 7.57607 12.77 6.67685 12.77 5.56245C12.77 4.44806 13.55 3.54658 14.514 3.54658ZM19.856 0C9.70202 0 10.336 5.09077 10.336 5.09077L10.348 10.3646H20.038V11.9481H6.49799C6.49799 11.9481 0 11.0949 0 22.9394C0 34.7838 5.672 34.3664 5.672 34.3664H9.05603V28.8679C9.05603 28.8679 8.874 22.3138 14.638 22.3138H24.248C24.248 22.3138 29.648 22.4124 29.648 16.2786V6.13857C29.648 6.13857 30.468 0 19.856 0Z" fill="#EAD7D7"/>
</svg>
