<svg width="40" height="46" viewBox="0 0 40 46" fill="none" xmlns="http://www.w3.org/2000/svg">
<path d="M16.8276 45.9707C11.8305 45.6604 6.89152 44.5766 3.86249 43.1256C2.13716 42.2992 0.822694 41.2835 0.30689 40.3783L0 39.8397V22.9458V6.05192L0.24284 5.62705C1.32805 3.72856 4.79146 2.01706 9.62619 0.990147C11.2673 0.641533 13.6366 0.294367 15.5695 0.119305C17.5431 -0.059504 22.7746 -0.0322996 24.7434 0.167275C29.976 0.696998 34.4287 1.88292 37.1727 3.47774C38.2309 4.09276 39.3167 5.07685 39.6846 5.75423L40 6.33501L39.973 23.1778L39.946 40.0206L39.6928 40.4638C39.5536 40.7076 39.133 41.1871 38.7582 41.5295C36.4765 43.6136 31.5824 45.1553 25.1628 45.8122C23.8544 45.9461 18.17 46.0541 16.8276 45.9707ZM26.0365 31.4949C26.0173 31.4518 25.2703 30.8784 24.3765 30.2206C23.4826 29.5629 22.7128 28.9938 22.6658 28.956C22.6187 28.9182 22.7839 28.7845 23.0328 28.6588C23.2816 28.5331 23.7585 28.1833 24.0924 27.8816C25.069 26.9992 25.5297 25.9093 25.5297 24.4816C25.5297 23.0761 25.0328 21.9421 24.0375 21.0764C23.0344 20.2039 21.8826 19.829 20.2053 19.829C17.6199 19.829 15.6343 21.1289 15.0006 23.2363C14.7825 23.9612 14.7837 25.426 15.0028 26.0687C15.5744 27.7454 17.1309 28.963 19.0682 29.249C19.7237 29.3457 19.8125 29.3874 20.2595 29.8085C20.5251 30.0587 21.0702 30.5582 21.4707 30.9184L22.1991 31.5734H24.1353C25.2002 31.5734 26.0557 31.5381 26.0365 31.4949ZM19.3965 26.8237C18.9304 26.6143 18.7542 26.4517 18.4884 25.9861C18.2831 25.6265 18.248 25.422 18.2457 24.572C18.2434 23.7083 18.2753 23.5216 18.4896 23.1466C18.8403 22.5329 19.3236 22.2424 20.0712 22.1958C21.1119 22.1307 21.7126 22.5708 22.0274 23.6284C22.4134 24.9251 21.9889 26.3037 21.0628 26.7612C20.577 27.0013 19.8523 27.0284 19.3965 26.8237ZM10.8145 29.2306C12.8444 28.8988 13.9968 27.8816 13.9968 26.4213C13.9968 25.1259 13.2528 24.371 11.1967 23.5801C10.0196 23.1273 9.59328 22.8431 9.59328 22.5111C9.59328 22.2358 9.99787 21.9343 10.4689 21.8585C10.9288 21.7845 12.1485 21.967 12.8688 22.2177L13.4726 22.4279V21.2763V20.1247L12.8173 19.9994C12.4123 19.922 11.5613 19.8756 10.5893 19.878C9.21253 19.878 8.94295 19.9069 8.42483 20.0842C6.91141 20.6018 6.19325 21.4837 6.20473 22.8103C6.21549 24.0522 6.97581 24.8268 8.86806 25.5237C9.98456 25.9349 10.4321 26.248 10.4321 26.618C10.4321 27.4043 8.91165 27.501 7.30191 26.8172C6.86107 26.6299 6.46499 26.4615 6.42174 26.4428C6.3785 26.4241 6.34312 26.9621 6.34312 27.6382C6.34312 28.8621 6.34463 28.868 6.60179 28.9524C7.57018 29.2696 9.71052 29.411 10.8145 29.2306ZM34.0222 28.0952V27.0563H32.1874H30.3526V23.4878V19.9193H28.7275H27.1024V24.5268V29.1342H30.5623H34.0222V28.0952ZM22.6989 9.88909C25.9283 9.69609 28.349 9.3317 30.4792 8.71799C32.6013 8.10659 33.855 7.36679 34.1354 6.56034C34.2434 6.24958 34.2357 6.1317 34.0847 5.79097C33.4077 4.26344 29.6256 3.08983 23.8463 2.61399C21.3742 2.41041 16.8783 2.47641 14.5212 2.75076C10.9245 3.1695 8.00566 3.94727 6.70782 4.83277C4.08243 6.62414 6.8588 8.59441 13.3153 9.52177C16.1149 9.92388 19.7419 10.0659 22.6989 9.88909Z" fill="#FCF9F9"/>
</svg>
