<svg width="21" height="21" viewBox="0 0 21 21" fill="none" xmlns="http://www.w3.org/2000/svg">
<g clip-path="url(#clip0_44_7)">
<path d="M19.4463 0H1.54951C1.54391 0 1.53761 0 1.53061 0C0.691084 0 0.00980261 0.67498 0 1.5117V19.4869C0.00980261 20.3243 0.691084 21 1.53061 21C1.53761 21 1.54391 21 1.55091 21H19.4442C19.4498 21 19.4568 21 19.4638 21C20.304 21 20.9867 20.3257 21 19.4883V19.4869V1.5131C20.9867 0.67498 20.304 0 19.4631 0C19.4561 0 19.4498 0 19.4428 0H19.4463ZM6.22816 17.8954H3.10953V7.875H6.22816V17.8954ZM4.66955 6.50403C3.67178 6.50403 2.86376 5.69532 2.86376 4.69825C2.86376 3.70119 3.67248 2.89247 4.66955 2.89247C5.66661 2.89247 6.47533 3.70049 6.47533 4.69755C6.47533 4.69825 6.47533 4.69895 6.47533 4.70035C6.47533 5.69672 5.66731 6.50473 4.67095 6.50473C4.67025 6.50473 4.67026 6.50403 4.66955 6.50403ZM17.8905 17.8954H14.7809V13.0228C14.7809 11.8605 14.7571 10.3656 13.1607 10.3656C11.5391 10.3656 11.2919 11.6301 11.2919 12.9374V17.8961H8.18238V7.8757H11.1694V9.24176H11.21C11.7897 8.265 12.8386 7.62083 14.038 7.62083C14.0808 7.62083 14.1228 7.62153 14.1648 7.62293H14.1585C17.3093 7.62293 17.8919 9.69689 17.8919 12.3961V17.8961L17.8905 17.8954Z" fill="#D54141"/>
</g>
<defs>
<clipPath id="clip0_44_7">
<rect width="21" height="21" fill="white"/>
</clipPath>
</defs>
</svg>
