<svg width="34" height="34" viewBox="0 0 34 34" fill="none" xmlns="http://www.w3.org/2000/svg">
<path d="M28.9 8.5C28.9 7.55969 28.1403 6.8 27.2 6.8H6.8C5.85969 6.8 5.1 7.55969 5.1 8.5C5.1 9.44031 5.85969 10.2 6.8 10.2H27.2C28.1403 10.2 28.9 9.44031 28.9 8.5ZM28.9 17C28.9 16.0597 28.1403 15.3 27.2 15.3H6.8C5.85969 15.3 5.1 16.0597 5.1 17C5.1 17.9403 5.85969 18.7 6.8 18.7H27.2C28.1403 18.7 28.9 17.9403 28.9 17ZM5.1 25.5C5.1 26.4403 5.85969 27.2 6.8 27.2H27.2C28.1403 27.2 28.9 26.4403 28.9 25.5C28.9 24.5597 28.1403 23.8 27.2 23.8H6.8C5.85969 23.8 5.1 24.5597 5.1 25.5Z" fill="#EAD7D7"/>
</svg>
